<?xml version="1.0" encoding="UTF-8"?>
<svg width="80px" height="80px" viewBox="0 0 80 80" version="1.1" xmlns="http://www.w3.org/2000/svg" xmlns:xlink="http://www.w3.org/1999/xlink">
    <!-- Generator: Sketch 52.5 (67469) - http://www.bohemiancoding.com/sketch -->
    <title>Group 2</title>
    <desc>Created with Sketch.</desc>
    <g id="Page-1" stroke="none" stroke-width="1" fill="none" fill-rule="evenodd">
        <g id="Group-2" fill="#000000">
            <g id="Shape" fill-rule="nonzero">
                <path d="M40,0 C17.9268646,0 4.92307846e-05,17.9267692 0,40 C-0.000129230754,62.0732308 17.9267415,80 40,80 C62.0732585,80 80.0001262,62.0732308 80,40 C79.9999508,17.9267692 62.0731354,0 40,0 Z M40,2.96296296 C60.4733302,2.96296296 77.0369907,19.5265432 77.037037,40 C77.0371543,60.4734568 60.4734444,77.037037 40,77.037037 C19.5265525,77.037037 2.96284568,60.4734568 2.96296296,40 C2.96300926,19.5265432 19.5266698,2.96296296 40,2.96296296 Z"></path>
            </g>
            <g id="Group" transform="translate(15.000000, 15.000000)">
                <path d="M9.40393013,15.7979924 C13.0696079,16.7170392 16.1490349,14.4131274 15.9944193,10.6551074 C15.8720153,7.77207024 12.8054729,6.53828143 9.96441161,6.33684652 C9.62296887,5.8269644 8.94008338,5.95286122 8.20565936,6.33684652 C7.8640702,6.36198715 7.52422427,6.40612255 7.18777345,6.46903818 C7.01667828,6.51004232 6.87671833,6.62985623 6.81262009,6.7901914 C6.74852185,6.95052657 6.76830879,7.13131315 6.86565765,7.27477781 C6.40896748,7.63674902 6.00762538,8.06070008 5.67382921,8.53374599 C3.84421149,11.8637168 5.95729111,14.9922528 9.40393013,15.7979924 Z M7.17488882,8.24418331 C7.39403536,7.96005576 7.64227599,7.69851496 7.91575515,7.46362304 C9.3324793,7.505767 10.7331591,7.76928934 12.0646066,8.24418331 C14.5062443,9.16952492 15.2857646,12.5750338 12.9600885,14.1172699 C10.789028,15.5650833 6.56286881,13.915835 6.27940691,11.3286554 C6.20912168,10.2455012 6.52812387,9.17236362 7.18133113,8.29454204 L7.17488882,8.24418331 Z" id="Shape" fill-rule="nonzero"></path>
                <path d="M22.2603392,11.7651106 C25.4829283,12.552094 28.8047758,11.3748709 29.7708908,8.03181723 C30.9222882,4.03186006 27.5475029,0.721326398 23.8153874,0.0123908989 C23.6286578,-0.0271187236 23.434289,0.0292144219 23.2992437,0.161982793 C20.9501285,0.161982793 18.945109,2.87414888 18.3098553,4.98144339 C17.3040369,8.37652899 18.7796783,10.9130872 22.2603392,11.7651106 Z M19.6862383,5.43021907 C20.1362097,3.66113232 21.3670137,1.58635779 23.2264543,1.12457411 C23.292517,1.20595963 23.3792531,1.26877682 23.4779088,1.30668598 C26.1711199,2.28878929 29.1819577,5.07249932 27.580589,8.21392911 C26.5681534,10.2041517 24.271976,10.5358555 22.2404876,10.0350478 C19.911224,9.44968823 19.1370085,7.72612945 19.7127072,5.43021907 L19.6862383,5.43021907 Z" id="Shape" fill-rule="nonzero"></path>
                <path d="M39.1583764,18.9995182 C43.2193752,19.0506372 46.3171883,15.0250117 44.4363732,11.2997105 C42.9200067,8.27729642 38.9305961,6.31560269 35.5919865,7.22296591 C35.0973777,7.35715343 35.25357,8.06643032 35.6961147,8.1431089 L36.1972315,8.22617736 C34.8903665,9.31451796 33.8588548,10.6860478 33.1840225,12.2326333 C32.1687728,15.9834939 35.5203984,18.954789 39.1583764,18.9995182 Z M35.1819818,10.9866063 C35.7778191,9.96942643 36.6235386,9.11489368 37.6420099,8.50094228 C38.8865378,8.73095489 40.0615426,9.23568858 41.0782396,9.97700499 C43.134771,11.5553058 44.2020848,14.5841098 41.8266609,16.411616 C40.0843578,17.6178313 37.7495478,17.5868873 36.0410393,16.3349374 C34.2773683,15.0633509 34.1602241,12.7566036 35.1819818,10.9866063 Z" id="Shape" fill-rule="nonzero"></path>
                <path d="M12.4324028,35.0395344 C9.57692057,34.8109647 6.60775401,35.8232022 4.01976424,34.1252554 C2.16069148,32.9105705 1.77951469,31.1277264 1.41171253,29.0771292 C1.25121704,28.2085642 1.22446779,27.6665273 0.615922393,27.026532 C0.60068872,27.0096635 0.578767734,27 0.555736585,27 C0.532705435,27 0.510784449,27.0096635 0.495550776,27.026532 C-0.688103461,29.3187601 0.388553783,33.2305681 2.24762654,34.9219843 C4.84230362,37.2860486 9.43648702,37.4754349 12.6062729,36.2803417 C12.8762684,36.1613731 13.033953,35.8831276 12.9937937,35.5965344 C12.9536344,35.3099412 12.7252008,35.0832943 12.4324028,35.0395344 Z" id="Path"></path>
                <path d="M48.9014824,21.4392166 C47.8195034,18.9094749 44.6113101,18.7197443 42.1705669,18.6565008 C39.4719101,18.5869329 35.7478895,18.3782292 33.3637615,19.8581281 C32.641069,20.3233171 32.0599193,20.9798007 31.6841779,21.7554343 C31.6438502,21.7582538 31.6048923,21.7713094 31.5709475,21.7933804 C29.6963985,23.0985166 28.0759558,24.7383788 26.7901103,26.6315114 C26.2734674,26.5553403 25.7522024,26.5151902 25.2300477,26.5113486 C27.683372,23.8171738 29.9102357,20.9712144 32.4327563,18.3782292 C32.4893715,18.6501764 32.5396961,18.9221236 32.6026019,19.2003952 C32.6340055,19.3928293 32.8033073,19.5314431 32.9971072,19.5233918 C33.1909071,19.5153406 33.3482566,19.3631563 33.3637615,19.1687735 C33.6405468,17.499144 33.6405468,14.5962654 32.3132354,13.2175562 C30.8223691,11.6680894 27.7840212,12.0285776 25.8968486,12.053875 C23.6385321,12.053875 20.2353309,11.7945765 18.2475091,13.1543126 C16.7566428,14.1662093 16.649703,16.2722193 16.6245407,17.9608218 C14.8694702,17.2651429 12.7621275,17.2398454 10.963023,17.2904403 C5.69781146,17.4359004 -0.00144972764,19.0992056 1.14972555,25.5690199 C1.20634072,25.8725889 1.62151869,25.7966966 1.65926214,25.5247494 C1.98637206,23.1910627 2.55881441,20.945917 4.72906287,19.5988295 C6.49042395,18.5047163 9.5287718,18.6059059 11.5857899,18.6059059 C13.642808,18.6059059 15.6369204,18.7007713 17.0208469,20.1237509 L16.9264883,20.2565624 C16.7000276,20.5980775 17.2158548,20.9522413 17.4989307,20.6992672 C17.568127,20.7941325 17.6373233,20.8953221 17.7002291,20.9965118 C18.9583441,23.0582513 18.5117133,25.4931276 19.1407708,27.839463 C19.1727717,27.9567421 19.243827,28.0594326 19.3420692,28.1303833 C15.9088388,30.2614075 13.741359,33.9571549 13.5484494,38.0090245 C13.521462,38.1680928 13.521462,38.3306071 13.5484494,38.4896754 C13.9070122,44.7697591 18.7570457,50 25.2174665,50 C31.6612535,49.9520338 36.8780809,44.721262 36.9430988,38.2430256 C36.9431387,37.461043 36.8630351,36.6811373 36.704057,35.9156633 C40.2833943,36.4658821 45.0327786,37.6548607 47.7754694,34.7013873 C48.3227495,34.106898 47.3854538,33.4365164 46.8130114,33.7970046 C43.51675,36.0231773 40.1261299,34.6381437 36.5782454,35.3274983 C35.6334451,31.8306368 33.1695215,28.9491441 29.8724922,27.4852992 C30.256547,27.1242771 30.6042146,26.7260197 30.9104371,26.2963206 C30.9383548,26.8365552 30.9950513,27.3748974 31.0802827,27.9090309 C31.1243167,28.1809781 31.4891701,28.1177346 31.564657,27.9090309 C32.1937145,26.1824822 32.0616124,24.0574992 32.9800364,22.4574376 C34.5463896,19.7253166 39.9877372,20.1111022 42.5731637,20.2818598 C46.2908937,20.5285096 47.8383752,22.4574376 48.2346814,25.9168593 C48.4247257,28.0559993 48.3252665,30.2111716 47.9390244,32.3234301 C47.8132129,33.10765 49.1027808,33.3353268 49.3040792,32.5764043 C50.2350843,29.053739 50.3546053,24.8733409 48.9014824,21.4392166 Z M28.1048406,13.3250702 C28.5836949,13.378742 29.0545609,13.48913 29.5076388,13.6539366 C27.1515978,15.5430107 24.9161237,17.5792597 22.8144668,19.750614 C21.8509333,20.6829394 20.9612597,21.689461 20.1535534,22.7610066 C20.0904615,22.3183808 19.9958599,21.880877 19.8704775,21.4518653 C20.9383475,20.3768922 21.9364113,19.234046 22.8585008,18.0303897 C24.2109745,16.411355 25.6074822,14.8239421 27.016571,13.2555023 C27.3802633,13.2602007 27.7434853,13.2834198 28.1048406,13.3250702 Z M26.217668,13.268151 C23.8461211,15.4690263 21.2669852,17.9228757 19.6188545,20.7182402 C19.4751882,20.3802895 19.2936877,20.0598972 19.0778651,19.7632627 C18.9664522,19.6132705 18.8467425,19.469692 18.7193023,19.3332067 C20.3737236,17.3536838 21.9715297,15.3298905 23.6762756,13.4009625 L23.8712834,13.4009625 C24.6135713,13.3503676 25.4061838,13.2871241 26.1987963,13.268151 L26.217668,13.268151 Z M18.738174,14.7480499 C18.9512601,14.5239165 19.1973741,14.3340737 19.4678807,14.1851824 C18.9099034,14.7851481 18.4047627,15.432661 17.9581427,16.1204348 C18.1369389,15.620917 18.4008923,15.1565182 18.738174,14.7480499 Z M17.1655302,18.2011473 L17.2095642,18.0936333 C17.3039889,18.1491661 17.4250746,18.1214988 17.4863495,18.0303897 C18.7067211,16.5757883 19.908221,15.0832407 21.0908491,13.6033418 C21.6674238,13.5088222 22.2494615,13.4517847 22.8333385,13.4325842 C21.1025912,15.081924 19.5000943,16.8621704 18.0399201,18.7576904 C17.7659683,18.545727 17.4732825,18.3594346 17.1655302,18.2011473 Z M20.3108178,24.607718 C21.3266339,23.019057 22.4600477,21.5095895 23.7014379,20.0921292 C25.6829691,17.9355244 27.8091835,15.9180554 29.7970053,13.767775 C30.558601,14.102649 31.1810957,14.6927242 31.5583664,15.4374045 C28.0670971,18.3529318 23.9593515,21.9198675 21.9149145,25.999076 C21.8282825,26.1339314 21.8584309,26.3129755 21.9843856,26.411649 C22.1103404,26.5103226 22.2903956,26.4959531 22.3992888,26.3785372 C24.0285478,24.911287 25.3244063,23.0139808 26.8026915,21.3696487 C28.4130788,19.5292616 30.1178246,17.7647668 31.8351517,16.0382181 C32.0267521,16.5655658 32.178163,17.1068064 32.2880731,17.6572528 C32.2487399,17.6712822 32.2124405,17.6927495 32.1811333,17.7204964 C29.3503745,20.4273199 26.3434795,23.2796037 24.1229064,26.5745922 C22.8131176,26.7024621 21.5357142,27.0599153 20.3485613,27.6307593 C20.323399,26.7074036 20.3485613,25.6638852 20.3108178,24.607718 Z M35.0559262,38.2430256 C35.0081084,43.6648391 30.6480651,48.0482948 25.25521,48.0963694 C19.7761189,48.0963694 15.6620827,43.6124023 15.4544937,38.2430256 C15.6620827,32.8736489 19.7761189,28.3896818 25.25521,28.3896818 C30.6480651,28.4377565 35.0081084,32.8212121 35.0559262,38.2430256 Z M29.1113326,27.1880545 C28.6996522,27.0353523 28.279589,26.9065451 27.8532176,26.8022689 C28.4193693,26.2330771 28.9414871,25.6132903 29.4698954,25.0061524 C29.9983037,24.3990144 30.6713953,23.6400919 31.2564188,22.9507372 C31.0772385,23.6158213 30.9717546,24.2987851 30.94189,24.9871793 C30.3568665,25.7524261 29.7403901,26.4670782 29.1113326,27.1880545 Z" id="Shape" fill-rule="nonzero"></path>
                <path d="M24.3512138,36.5094428 C24.3436028,36.5707224 24.374634,36.630754 24.4320277,36.6657816 C24.4894215,36.7008093 24.5639277,36.7051878 24.6260627,36.6771845 C24.8681915,36.5615006 25.8563388,37.255604 26.0788356,37.4233456 C26.5104512,37.7024285 26.7441182,38.1616412 26.6939737,38.6322424 C26.4780209,39.6791818 25.1430404,39.8180025 24.2334214,40.1997593 C24.0768159,40.2776616 23.9862088,40.4293048 24.0017155,40.58755 C24.0172223,40.7457952 24.1359785,40.8814101 24.3054056,40.9343521 C26.2686122,41.3623826 28.6571803,39.627124 27.8326335,37.7703974 C27.4179964,36.98313 26.6450643,36.388232 25.7058263,36.1334701 C25.1364964,35.9541601 24.4755502,35.8558288 24.3512138,36.5094428 Z" id="Path"></path>
                <path d="M21.0377132,43.8949753 C23.1204572,45.3063434 25.8589306,45.3708277 28.0083696,44.059117 C30.2850489,42.7459828 31.6510565,40.3626443 30.6868159,37.7757699 C29.9837237,35.8388969 28.1690764,34.0005091 25.9995349,34.0005091 C25.8439849,33.9917888 25.7053403,34.0959783 25.6734965,34.2455224 C25.6416527,34.3950664 25.7261956,34.5449477 25.8723087,34.5979851 C29.3007199,35.8323313 31.3363391,40.3560786 27.4191114,42.4767903 C25.931244,43.412915 24.012541,43.3687403 22.5711237,42.3651739 C21.2319006,41.3606263 21.0511055,40.0671891 20.8368298,38.511125 C20.7984617,38.2503538 20.6048298,38.0373278 20.3450283,37.9700649 C20.0852268,37.902802 19.8095809,37.9943314 19.6449212,38.2025385 C18.2856097,40.1197144 19.229762,42.6081037 21.0377132,43.8949753 Z" id="Path"></path>
                <path d="M25.62339,32.3614236 C28.6878218,32.7913293 31.383271,35.3400562 31.495842,38.5029342 C31.5833972,40.9226894 29.4382949,43.3547276 27.4557952,44.5400392 C25.08634,45.9945027 22.0308234,45.775917 19.9010327,43.9995862 C17.3119006,41.8807651 17.4682491,38.7977267 19.0442426,36.0524715 C19.2497531,35.7760347 19.1881534,35.3883343 18.9066559,35.1865185 C18.6251584,34.9847026 18.2303604,35.0451949 18.02485,35.3216317 C12.0148113,40.8858403 20.6702676,49.2874269 27.2431611,46.4193414 C30.5014651,44.994511 33.3782787,41.3034631 32.9592645,37.6738303 C32.577774,34.3758391 28.9129638,31.8701027 25.6671676,32.0052159 C25.5670029,31.9933444 25.4760034,32.0634605 25.4639145,32.1618245 C25.4518257,32.2601885 25.5232253,32.349552 25.62339,32.3614236 Z" id="Path"></path>
            </g>
        </g>
    </g>
</svg>