<?xml version="1.0" encoding="UTF-8"?>
<svg width="80px" height="80px" viewBox="0 0 80 80" version="1.1" xmlns="http://www.w3.org/2000/svg" xmlns:xlink="http://www.w3.org/1999/xlink">
    <!-- Generator: Sketch 52.5 (67469) - http://www.bohemiancoding.com/sketch -->
    <title>Shape</title>
    <desc>Created with Sketch.</desc>
    <g id="Page-1" stroke="none" stroke-width="1" fill="none" fill-rule="evenodd">
        <path d="M40,0 C17.9268646,0 4.92307846e-05,17.9267692 0,40 C-0.000129230754,62.0732308 17.9267415,80 40,80 C62.0732585,80 80.0001262,62.0732308 80,40 C79.9999508,17.9267692 62.0731354,0 40,0 Z M40,2.96296296 C60.4733302,2.96296296 77.0369907,19.5265432 77.037037,40 C77.0371543,60.4734568 60.4734444,77.037037 40,77.037037 C19.5265525,77.037037 2.96284568,60.4734568 2.96296296,40 C2.96300926,19.5265432 19.5266698,2.96296296 40,2.96296296 Z M36.1375661,23.7037037 C30.2237704,23.7037037 25.3968254,28.6233745 25.3968254,34.6502058 C25.3968254,35.3854979 25.6390874,36.0349383 25.7804233,36.7026749 C22.1848376,37.3453909 19.2592593,40.1919506 19.2592593,44.0329218 C19.2592593,48.3327078 22.7123129,51.8518519 26.9312169,51.8518519 L56.0846561,51.8518519 C59.4562053,51.8518519 62.2222222,49.0326584 62.2222222,45.5967078 C62.2222222,42.1607572 59.4562053,39.3415638 56.0846561,39.3415638 C55.8669873,39.3415638 55.7137599,39.4142798 55.5092593,39.4393004 C54.7561952,35.9304774 52.0724953,33.0864198 48.4126984,33.0864198 C47.7882655,33.0864198 47.2747599,33.4309218 46.6865079,33.5751029 C46.1257277,28.0777695 41.6752374,23.7037037 36.1375661,23.7037037 Z" id="Shape" fill="#000000" fill-rule="nonzero"></path>
    </g>
</svg>